<?xml version="1.0" standalone="no"?>
<!DOCTYPE svg PUBLIC "-//W3C//DTD SVG 20010904//EN"
 "http://www.w3.org/TR/2001/REC-SVG-20010904/DTD/svg10.dtd">
<svg version="1.0" xmlns="http://www.w3.org/2000/svg"
 width="350.000000pt" height="350.000000pt" viewBox="0 0 350.000000 350.000000"
 preserveAspectRatio="xMidYMid meet">

<g transform="translate(0.000000,350.000000) scale(0.100000,-0.100000)"
fill="#000000" stroke="none">
<path d="M1100 1875 l-165 -165 -5 82 c-5 83 -5 83 -34 86 -25 3 -41 -9 -117
-84 l-89 -89 0 88 0 87 -60 0 c-33 0 -60 -2 -60 -5 0 -17 26 -54 41 -58 17 -5
19 -15 19 -91 l0 -86 32 0 c27 0 46 13 114 81 l81 81 7 -81 7 -81 32 0 c24 0
43 11 80 48 l49 47 -21 -42 c-27 -53 -27 -53 8 -53 26 0 31 7 72 98 39 87 53
107 143 200 l100 102 -35 0 c-31 0 -50 -15 -199 -165z"/>
<path d="M2399 1885 c-1 -25 -3 -26 -6 -7 -4 18 -9 21 -26 16 -12 -4 -31 -8
-42 -9 -11 -2 -19 -8 -17 -14 2 -12 -28 -15 -135 -11 l-72 2 -55 -111 -56
-110 88 -3 c70 -2 93 1 120 15 17 11 32 25 32 33 0 17 3 16 -38 5 -20 -6 -32
-6 -32 0 0 5 -18 9 -39 9 l-40 0 22 50 22 50 64 0 c59 0 63 -1 58 -21 -4 -14
1 -23 16 -29 20 -8 19 -9 -8 -10 l-30 -2 30 -13 c27 -13 28 -14 7 -15 -13 0
-20 -4 -17 -10 4 -6 16 -8 28 -5 21 5 21 5 0 -6 -30 -15 -30 -32 -1 -23 21 6
22 5 8 -11 -14 -17 -13 -18 8 -12 23 5 23 5 6 -14 -14 -15 -14 -19 -3 -19 8 0
21 6 29 13 12 10 12 9 1 -6 -8 -9 -11 -21 -7 -25 4 -4 14 2 23 13 15 20 15 20
8 -2 -3 -13 -2 -23 3 -23 5 0 14 10 20 23 10 19 10 18 5 -10 -3 -20 -1 -33 5
-33 6 0 13 12 15 28 4 25 4 24 6 -6 1 -36 20 -35 22 1 1 17 2 18 6 5 2 -10 9
-18 14 -18 5 0 9 8 9 18 1 13 4 11 16 -8 l15 -25 -5 34 -6 33 20 -23 c16 -20
19 -21 20 -7 0 9 -4 20 -10 23 -5 3 -10 12 -10 18 0 7 7 4 14 -5 7 -10 19 -18
26 -18 9 0 7 7 -6 21 -19 22 -19 22 1 12 11 -5 36 -6 55 -2 19 3 31 7 26 8 -6
0 -1 8 10 16 16 13 17 16 4 25 -13 8 -13 10 1 10 23 0 32 28 11 33 -11 3 -8 5
8 6 24 1 25 -1 22 -49 l-4 -50 33 0 c26 0 44 10 77 43 l44 42 -21 -42 -21 -43
30 0 c28 0 33 7 74 88 62 124 64 132 29 132 -21 0 -46 -18 -105 -77 l-78 -78
0 78 0 77 -32 0 c-28 0 -36 -6 -50 -35 -17 -35 -17 -35 5 -36 19 -1 17 -3 -10
-15 -20 -8 -35 -24 -39 -39 -5 -19 -13 -25 -33 -25 l-26 1 25 14 25 14 -25 2
c-17 1 -20 3 -7 6 9 2 17 9 17 14 0 5 -8 9 -17 9 -17 1 -17 1 0 11 25 15 22
32 -4 19 -11 -7 -23 -9 -26 -7 -2 3 5 10 16 17 12 6 21 16 21 22 0 6 -12 3
-27 -7 -16 -10 -22 -12 -15 -4 6 7 12 20 12 28 0 11 -5 10 -21 -5 -22 -19 -22
-19 -10 3 16 32 14 38 -8 19 -18 -16 -18 -15 -14 11 4 27 4 27 -11 9 -14 -17
-16 -18 -16 -3 0 26 -20 20 -21 -5 -1 -21 -2 -21 -6 -3 -9 35 -23 41 -24 10z
m-184 -65 c8 -13 -5 -13 -25 0 -13 8 -13 10 2 10 9 0 20 -4 23 -10z m95 0 c0
-5 -2 -10 -4 -10 -3 0 -8 5 -11 10 -3 6 -1 10 4 10 6 0 11 -4 11 -10z m-15
-20 c3 -5 1 -10 -4 -10 -6 0 -11 5 -11 10 0 6 2 10 4 10 3 0 8 -4 11 -10z
m260 -140 c3 -5 2 -10 -4 -10 -5 0 -13 5 -16 10 -3 6 -2 10 4 10 5 0 13 -4 16
-10z"/>
<path d="M1143 1755 c-29 -58 -53 -107 -53 -110 0 -3 13 -5 28 -5 24 0 32 8
61 68 19 37 35 63 37 57 1 -5 10 -36 19 -67 15 -55 17 -58 48 -58 32 0 34 3
84 110 l51 110 -30 0 c-27 0 -32 -6 -61 -71 l-32 -72 -21 69 c-19 63 -23 69
-50 72 -28 3 -31 -2 -81 -103z"/>
<path d="M1412 1755 c-29 -59 -52 -109 -52 -111 0 -2 13 -4 28 -4 24 0 32 8
61 68 19 37 35 63 37 57 1 -5 10 -36 19 -67 15 -56 17 -58 48 -58 32 0 34 3
80 103 26 56 47 105 47 110 0 4 -12 7 -26 7 -22 0 -30 -10 -59 -72 l-33 -72
-12 44 c-23 92 -25 95 -57 98 -29 3 -31 -1 -81 -103z"/>
<path d="M1681 1754 c-28 -58 -51 -108 -51 -110 0 -2 13 -4 28 -4 24 0 32 7
47 40 17 39 20 40 67 40 52 0 56 -6 33 -50 -15 -30 -15 -30 13 -30 27 0 33 8
81 106 28 58 51 108 51 110 0 2 -49 4 -109 4 l-108 0 -52 -106z m179 36 c0 -5
-25 -10 -56 -10 -34 0 -53 4 -49 10 3 6 28 10 56 10 27 0 49 -4 49 -10z"/>
<path d="M1905 1670 l-16 -30 30 0 c20 0 34 7 41 19 16 30 12 41 -15 41 -17 0
-29 -9 -40 -30z"/>
<path d="M630 1525 l0 -35 48 2 c43 1 44 2 10 5 -47 5 -50 23 -5 24 l32 2 -35
7 -35 7 38 2 c53 2 46 21 -8 21 -45 0 -45 0 -45 -35z"/>
<path d="M1410 1545 c0 -8 5 -15 10 -15 6 0 10 7 10 15 0 8 -4 15 -10 15 -5 0
-10 -7 -10 -15z"/>
<path d="M1750 1556 c0 -1 5 -17 11 -35 13 -36 32 -40 46 -9 l10 23 12 -23
c14 -26 37 -29 44 -4 2 9 8 25 12 35 4 10 3 17 -3 17 -6 0 -14 -9 -17 -20 -7
-23 -25 -27 -25 -6 0 26 -22 29 -40 6 l-18 -23 -6 21 c-6 18 -26 32 -26 18z"/>
<path d="M730 1545 c0 -15 34 -55 46 -55 7 0 20 14 29 30 9 17 11 30 6 30 -6
0 -16 -10 -22 -22 l-12 -22 -15 22 c-13 20 -32 30 -32 17z"/>
<path d="M830 1520 c0 -29 2 -30 43 -29 l42 2 -35 7 c-31 7 -32 7 -7 9 15 0
27 6 27 11 0 6 -12 11 -27 11 -25 2 -24 2 7 9 l35 7 -42 2 c-41 1 -43 0 -43
-29z"/>
<path d="M920 1520 c0 -30 14 -41 23 -17 3 10 9 10 26 0 27 -17 26 -18 29 17
2 29 1 30 -38 30 -38 0 -40 -2 -40 -30z m53 13 c-7 -2 -19 -2 -25 0 -7 3 -2 5
12 5 14 0 19 -2 13 -5z"/>
<path d="M1028 1533 c12 -8 22 -22 22 -29 0 -21 13 -16 38 17 16 20 19 29 10
29 -8 0 -19 -5 -26 -12 -9 -9 -15 -9 -24 0 -7 7 -19 12 -27 11 -12 0 -10 -4 7
-16z"/>
<path d="M1124 1535 c-12 -30 4 -45 46 -45 38 0 40 2 40 30 0 28 -2 30 -40 30
-27 0 -43 -5 -46 -15z m66 -15 c0 -15 -7 -20 -25 -20 -24 0 -34 18 -18 33 15
15 43 7 43 -13z"/>
<path d="M1220 1520 c0 -16 5 -30 10 -30 6 0 10 7 10 15 0 8 4 15 9 15 5 0 14
-7 21 -15 21 -25 40 -18 40 15 0 17 -4 30 -10 30 -5 0 -10 -7 -10 -15 0 -8 -4
-15 -9 -15 -5 0 -14 7 -21 15 -21 25 -40 18 -40 -15z"/>
<path d="M1320 1520 c0 -29 2 -30 43 -29 l42 2 -35 7 c-31 7 -32 7 -7 9 15 0
27 6 27 11 0 6 -12 11 -27 11 -25 2 -24 2 7 9 l35 7 -42 2 c-41 1 -43 0 -43
-29z"/>
<path d="M1446 1542 c-13 -21 2 -47 28 -50 38 -5 63 5 48 20 -6 6 -8 17 -5 24
4 10 -4 14 -30 14 -20 0 -38 -4 -41 -8z m47 -9 c-7 -2 -19 -2 -25 0 -7 3 -2 5
12 5 14 0 19 -2 13 -5z m10 -30 c-7 -2 -21 -2 -30 0 -10 3 -4 5 12 5 17 0 24
-2 18 -5z"/>
<path d="M1608 1523 l-16 -28 44 0 c24 0 44 1 44 3 0 11 -35 52 -44 52 -6 0
-19 -12 -28 -27z"/>
<path d="M1900 1520 c0 -16 5 -30 10 -30 6 0 10 14 10 30 0 17 -4 30 -10 30
-5 0 -10 -13 -10 -30z"/>
<path d="M1930 1520 c0 -16 5 -30 10 -30 6 0 10 7 10 15 0 8 4 15 9 15 5 0 14
-7 21 -15 21 -25 40 -18 40 15 0 17 -4 30 -10 30 -5 0 -10 -7 -10 -15 0 -8 -4
-15 -9 -15 -5 0 -14 7 -21 15 -21 25 -40 18 -40 -15z"/>
<path d="M2030 1520 c0 -16 5 -30 10 -30 6 0 10 7 10 15 0 8 4 15 9 15 5 0 14
-7 21 -15 21 -25 40 -18 40 15 0 17 -4 30 -10 30 -5 0 -10 -7 -10 -15 0 -8 -4
-15 -9 -15 -5 0 -14 7 -21 15 -21 25 -40 18 -40 -15z"/>
<path d="M2152 1523 l-20 -28 44 0 c24 0 44 1 44 3 0 9 -34 52 -40 52 -5 0
-17 -12 -28 -27z"/>
</g>
</svg>
